<svg version="1" xmlns="http://www.w3.org/2000/svg" width="346.667" height="346.667" viewBox="0 0 260.000000 260.000000"><path d="M143.1 16.2c.8.7 2.3 2.2 3.3 3.3 1.4 1.5 1.3 1.1-.3-1.3-1.2-1.7-2.7-3.2-3.4-3.2-.6 0-.5.5.4 1.2zM137.6 21.5c-.9 2.6-.7 3.2.5 1.2.6-1 .9-2.1.6-2.3-.2-.3-.7.2-1.1 1.1zM150 23.9c1.4 1.2 4.6 3.3 7.3 4.7 2.6 1.3 4.7 2.9 4.7 3.4 0 1.5-1.1 1.2-3.2-.7-1.1-1-1.8-1.2-1.8-.4 0 .6.7 1.4 1.6 1.8 1.4.5 2.9 3.3 6.2 11.5.7 1.6 1 2.8.7 2.8-.3 0-4.2-1.8-8.7-3.9-4.6-2.2-11-4.8-14.3-5.9-6.7-2.3-18.5-4.3-19.9-3.4-.5.3-.6-.3-.2-1.4.5-1.2.4-1.6-.3-.9-1.1 1.2-2 16.5-.8 15.8.4-.2.7-1.4.7-2.5 0-2.7 2.8-4.7 6.6-4.8 4.9 0 14.7 2.2 17.4 3.9 2.6 1.7 9.7 5.1 10.6 5.1.3 0 .2-.6-.3-1.3-.4-.6 1.2.3 3.5 2.1 5.1 4 5.7 5.4.7 1.6-3.3-2.5-5.1-2-2 .6 1.9 1.6 1.9 3.8.1 8.2l-1.4 3.4 5.4 5.3c3 2.9 5.4 5.8 5.4 6.3s.6 1.6 1.4 2.3c1.2 1.2 1.3.3 1.2-6-.1-4.1.1-7.2.6-6.9 1.2.8 2.1-4.3 1.4-8-.4-1.9-1.3-3.7-2.1-4-.8-.3-1.5-1-1.5-1.6 0-.6.6-.8 1.3-.4.6.5-.3-.9-2-2.9-2.3-2.6-3.3-4.8-3.3-7.1 0-1.9-.7-3.9-1.5-4.6-1.7-1.4-2.1-3.5-.4-2.4.8.4.8 0 0-1.5-.7-1.1-3.3-3.2-5.9-4.6-2.6-1.4-5.8-3.2-7.2-4.1l-2.5-1.6 2.5 2.1zm-27.3 16.3c-.3.7-.5.2-.5-1.2s.2-1.9.5-1.3c.2.7.2 1.9 0 2.5zm45.4 8.5c1.3 1.6 1.2 1.7-.3.4-1.7-1.3-2.2-2.1-1.4-2.1.2 0 1 .8 1.7 1.7zm1.2 23.8c.5 2.8.4 3.4-.3 2-.8-1.9-1.4-7.3-.6-6.4.2.2.6 2.2.9 4.4zM126.4 28.6c-1.8 1.4-1.8 1.5.4.4 1.2-.6 2.2-1.3 2.2-1.5 0-.8-.5-.6-2.6 1.1zM112.9 54.7l-2.4 2.8 2.8-2.4c2.5-2.3 3.2-3.1 2.4-3.1-.2 0-1.4 1.2-2.8 2.7zM108 61.3c0 2.6 2.4 9.6 3.1 9.1.5-.3.6.3.2 1.2-.3 1-.2 1.5.3 1.2.5-.3 1 1.3 1.1 3.6.1 3.3-.5 5-3.4 8.6l-3.5 4.5 4.1-4.5c2.3-2.5 4.1-5.2 4.2-6 0-1 .2-1.1.5-.3.4.9 1.3.9 3.7-.1 5.1-2.1 10.2-3.6 12.5-3.6 1.2 0 5 1.7 8.4 3.8 3.5 2.2 7.9 4.2 9.8 4.6 4.3.8 19.3 8 18.5 8.8-.4.3.3.9 1.4 1.3 1.3.4 2.7.1 3.7-.9 1.3-1.4 1.4-2.3.3-7.1-.8-3.6-1.5-5.1-2.1-4.3-.6 1-.8 1-.8 0 0-1.7-10.1-8-19-11.8-4.3-1.8-14.2-4.5-23-6.2-15.3-3.1-20-3.6-20-1.9zm32 10.1c0 .2-.7.7-1.6 1-.8.3-1.2.2-.9-.4.6-1 2.5-1.4 2.5-.6zm-18.1 1.8c-.2.2-1.7 1.4-3.4 2.8l-3 2.5 2.4-2.8c1.4-1.5 2.9-2.7 3.4-2.7.6 0 .8.1.6.2zM164.5 87c1 1.1 1.6 2 1.3 2-.3 0-1.3-.9-2.3-2-1-1.1-1.6-2-1.3-2 .3 0 1.3.9 2.3 2z"/><path d="M104.1 93.7c-.6 2-.8 3.9-.6 4.2.3.2.5 0 .5-.6 0-.5 1.6-.9 3.5-.8 1.9 0 3.5 0 3.5-.1 0-.5-3.2-6.4-3.5-6.4-.3 0-.9 1.5-1.5 3.2l-1 3.3.5-3.3c.6-4.3-.2-4.1-1.4.5z"/><path d="M121.5 95.1c-3.3.3-7.1 1-8.5 1.6-1.4.5-3 .8-3.7.6-2.5-.9-5.3 1.7-5.3 5 0 2.4.8 3.9 3.6 6.2 3 2.6 3.6 3.7 3.6 7 0 2.2.6 4.7 1.3 5.5 2.9 3.3 4.4 19.7 2.4 25.8-.9 2.8-.8 3.6.7 5.3 2.1 2.4 3.4 2.4 3.4.1s5.6-4.5 7.9-3.2c3.3 2 4.8 3.6 5.6 6 .7 2.2.6 2.3-.9 1.1-.9-.8-1.6-.9-1.6-.3 0 .6.5 1.4 1 1.7.6.4.8 1.1.4 1.6-.4.6-1.1.6-2-.2-1-.8-1.1-1.6-.3-3 .8-1.6.6-2.4-1.3-3.9-2.8-2.4-3.4-2.4-4.2-.5-.3.9-1.2 1.2-2.3.8-1.5-.6-1.6-.4-.6.9.7.8 1 1.7.7 2-1 1.1-1.2 7.8-.2 8.4.5.3.6 1.8.3 3.4-.4 1.9-.2 2.9.9 3.3 2.1.8 3.6 4.1 2.6 5.7-.7 1.1-1.3.9-2.9-1.1-1.1-1.3-2-1.9-2.1-1.3 0 .6.7 1.7 1.5 2.4 1.9 1.6 1.9 2.5 0 4.3-1.3 1.3-1.3 1.6 0 2.7 2 1.7 1.9 3.1-.2 2.4-1.1-.3-.6.5 1.2 2.1 1.7 1.6 2.3 2.5 1.3 2.1-1-.3-1.8-.1-1.8.4 0 .6.5 1 1.1 1 .8 0 .7.5-.2 1.6-1.1 1.4-1 2 1.4 3.9 1.5 1.3 2.1 2.5 1.5 2.7-.7.3-.2 1.3 1.2 2.6 1.3 1.2 2 2.2 1.5 2.2s-2-1-3.3-2.3c-2.6-2.2-2.1-.7.6 2.6.8.9 1.2 2 .7 2.5-.4.4-1 .1-1.2-.6-.3-.6-.9-1.2-1.4-1.2-.6 0 .2 1.5 1.6 3.4 1.6 2.1 2.2 3.7 1.6 4.1-.6.3-1.1.1-1.1-.6s-.3-.9-.7-.6c-.3.4.2 1.6 1.2 2.7 1.7 1.8 1.7 2 .2 1.4-2.7-1-2 1.2.8 2.4 3.2 1.5 4.5 1.5 4.5.2 0-.6-.7-1-1.5-1-1.3 0-1.4-.4-.5-2 .9-1.6.8-1.8-.5-1.4-1.3.5-1.3.3 0-2.2 1.9-3.7 1.9-5.5 0-3-1.9 2.6-2 .1-.1-3.4 1.2-2.1 1.2-2.6 0-3.5-1.2-.8-1.2-1.4.1-3.9 1.7-3.2 1.8-3.6.8-3.5-2.1.3-2.2-.3-.7-2.7 1.5-2.2 1.5-2.7.3-3.4-1.2-.8-1.1-1.4.5-4.2l1.9-3.3-2.5 2.3c-2.5 2.3-2.7 2.3-5.1.7-1.5-1-2.4-2.2-2-3.1.6-1.6 2.3-.9 2.3 1 0 .7.7 1.3 1.5 1.3 1.3 0 1.3-.4-.1-2.5-1.4-2.2-1.5-2.7-.2-3.6.8-.6 2.6-2.9 4.1-5l2.6-3.9-2.2-1.8-2.2-1.7 2.3-2.4c1.2-1.3 2.2-2.9 2.2-3.6 0-.6.6-1.5 1.4-1.9.8-.4 1.6-2.1 1.8-3.7.1-1.6.9-3.1 1.6-3.4.6-.2 1.1.2.9 1-.2.7.1.3.7-1 1.5-3.4 5-2.8 9.5 1.8 2.4 2.5 4.2 3.6 4.6 3 1.4-2.2 4.5-14.6 4.5-17.8 0-3.7 2.8-9.8 5.8-12.5 1.5-1.4 1.9-2.7 1.5-5.1-.4-2.4 0-3.7 1.2-4.7 5.2-4.2 6.5-6 6.5-8.7 0-2.3-.8-3.3-3.9-5-2.1-1.2-4.7-2.2-5.8-2.2-1.1 0-3.9-.7-6.4-1.4-4.8-1.6-25.4-2.5-35.4-1.5zm29.2 19.5c-.3.3-1.2.4-1.9.1-.8-.3-.5-.6.6-.6 1.1-.1 1.7.2 1.3.5zM127 153.5c.7.9 1.1 1.8.8 2-.9 1-3.8-.7-3.8-2.1 0-1.8 1.4-1.8 3 .1zm-1.6 3.4c.8 1.3-.4 4.2-1.5 3.5-1.2-.7-1.2-4.4 0-4.4.6 0 1.2.4 1.5.9zm4 3c.3.5-.1 1.4-.8 2-1.6 1.3-3.2-.2-2.1-1.9.8-1.2 2.2-1.3 2.9-.1zm-5.9 2c.3.5.1 1.2-.5 1.6-.5.3-1-.1-1-.9 0-1.8.6-2.1 1.5-.7zm7.5 5.9c0 .4-1 1.8-2.1 3.2-1.4 1.7-2.2 2.1-2.6 1.2-.2-.7-1.2-1.9-2-2.8-1.3-1.2-1.3-2-.4-4l1.1-2.5 3 2.1c1.7 1.2 3 2.4 3 2.8zm-2.2 20.8c.1.1 0 .9-.4 1.8-.9 2.2-2.7 2-1.9-.3.3-1.2 0-2.1-1-2.5-.8-.3-1.5-1.1-1.5-1.7 0-.7.9-.4 2.3.7 1.2 1 2.3 1.9 2.5 2zM126 194c0 .5-.4 1-1 1-.5 0-1-.5-1-1 0-.6.5-1 1-1 .6 0 1 .4 1 1zm3 2c0 .5-.4 1-1 1-.5 0-1-.5-1-1 0-.6.5-1 1-1 .6 0 1 .4 1 1z"/><path d="M125.2 165.9c-1.1.6-1 1.1.3 2.5 2.1 2.1 2.8 1.6 1.8-1.2-.6-1.4-1.2-1.9-2.1-1.3zM141.3 149.2c-1.9 3.1-3.1 5.8-2.5 5.8.4 0 1.5-1.4 2.5-3.1 1-1.8 2-2.9 2.3-2.7.3.3-.5 2.2-1.6 4.1-1.5 2.6-2.6 3.4-3.8 3-1.3-.5-1.2 0 .5 1.8 1.8 2 2 2.8 1 3.8-1 1.1-.8 1.2 1.1.6 2.9-.8 2.9.9 0 3-1.8 1.2-2.1 1.9-1.2 3.3.9 1.3.7 2.3-.5 4.2-1.5 2.5-1.5 2.5.5.7 1.7-1.4 2.3-1.5 3.2-.4 1.5 1.8.3 6-1.5 5.3-1-.4-1.1-.1-.3 1.4.5 1 1.5 2.2 2 2.5.6.4.7 1.1.4 1.7-.4.7-.2.8.5.4.6-.4 1.4 0 1.7.9.9 2.3-.3 3-2.3 1.4-1.5-1.1-1.4-.9.2 1.1 1.1 1.4 2.6 3.1 3.4 3.8 1.2 1 1.3 1.4.2 2.5-1.1.9-1.4.9-1.8-.1-.3-.6-.9-1.2-1.5-1.2-1.2 0 3 6 5.9 8.3 2.2 1.8 2.3 3.7.1 3.7-.5 0-.7-.8-.4-1.7.4-1 .4-1.4 0-1-.4.4-1.6 0-2.6-1-2.8-2.5-2.2.1.7 2.9 2.2 2.2 2.3 2.7 1 3.8-1.9 1.6-1.9 3.1 0 2.4.8-.4 1.5-.1 1.5.5 0 1.8 1.4 1.2 3.3-1.4 1.4-2 1.5-2.4.2-1.9-1.7.7-2.1-2.1-.5-3.1.8-.5.8-1.1 0-2-.8-1-.8-1.9.2-3.5 1.1-1.7 1.1-2.2-.2-3-1.3-.8-1.3-1.3-.2-3.1 1.7-2.7.6-3.9-1.3-1.3-.8 1-1.5 1.4-1.5.8 0-.5.4-1.4.9-2 .5-.5 1.2-2 1.5-3.4.6-2.3.6-2.3-.7-.8-1.3 1.6-1.5 1.6-3.6-.6-2.4-2.6-2.3-5.4.4-7.6.8-.7 1.5-1.7 1.5-2.2 0-.6-.6-.6-1.4.1-2.6 2.2-3-.9-.6-4.2 1.7-2.3 1.9-2.9.7-2.4-2.7 1-2.7-.7-.1-3.8 2.5-2.9 3-4 1.5-3-1.8 1-2.3-1.6-.7-3.4 2.3-2.5 2-3.5-1.8-7.5-3.6-3.8-5-4.4-6.3-2.4zm5.3 5.3c-.3.9-1 1.3-1.6 1-.5-.3-1-.2-1 .4 0 .5-.3 1.7-.6 2.5-.5 1.2-.2 1.5 1 1 1.1-.4 1.6-.1 1.6 1 0 2-.9 2-3.2-.1-2.3-2.1-2.3-2.7.4-6.3 2.2-3.1 4.7-2.7 3.4.5zm2 3c-.3.9-1.1 1.3-1.6 1-.8-.5-.7-1.1.1-2.1 1.4-1.8 2.4-1.1 1.5 1.1zm-1 7c-.3.9-1.1 1.3-1.6 1-.8-.5-.7-1.1.1-2.1 1.4-1.8 2.4-1.1 1.5 1.1zm-4.1 3.9c-1.5 1.1-2.2 1.1-2.7.3-1-1.6 2.3-4 3.6-2.7.7.7.3 1.5-.9 2.4zm2.8 1.2c.3.4.2 1.5-.4 2.5-.8 1.6-1.2 1.7-2.3.7-1-.9-1.1-1.7-.4-2.6 1.2-1.3 2.1-1.5 3.1-.6zm.1 8.2c.2.4-.2 1.5-.9 2.5-1.5 2-2.8.8-1.9-1.7.7-1.7 2-2.1 2.8-.8zm3.1 12.3c-.6.9-3.5.1-3.5-1 0-.4.3-1.1.7-1.4.8-.9 3.4 1.3 2.8 2.4zm-.1 6.1c-.6 2-.5 2.1.9 1 .9-.8 1.8-.9 2.1-.4.3.6 0 1.5-.8 2.1-1 .8-1.7.6-3-.8-1.8-1.9-1.5-4.1.5-4.1.6 0 .7.9.3 2.2zM152 209c0 .5-.4 1-1 1-.5 0-1-.5-1-1 0-.6.5-1 1-1 .6 0 1 .4 1 1zM129.5 175.5c-2.4 2.5-3.2 4.5-1.9 4.5.7 0 2.9-2.5 4.5-5.3 1.4-2.4.4-2.1-2.6.8z"/><path d="M148.4 182.2c-.1 2.9 0 3 1.2 1.3 1.5-2 1.4-3.7-.2-4.2-.5-.2-1 1.1-1 2.9zM122.5 198c.3.5 1.1 1 1.6 1 .6 0 .7-.5.4-1-.3-.6-1.1-1-1.6-1-.6 0-.7.4-.4 1zM153 212c-.8.5-2.4.7-3.5.4-1.6-.5-1.7-.4-.8.6.9 1 .9 1.7 0 3.1-.9 1.4-.9 2.1.1 3.1 1.1 1.1 1.2 1 .7-.4-.6-1.6-.5-1.6 2.5-.2 1.7.9 3.4 1.3 3.7 1 .4-.3.2-.6-.3-.6-.6 0-1-1.8-.9-4 .1-2.2.1-4 .1-4-.1 0-.8.5-1.6 1zm-.5 3.6c-.9.9-1.9 1.3-2.3 1-.3-.4 0-1.1.8-1.6 2.4-1.5 3.3-1.1 1.5.6zM126 219.1c0 .5.6.9 1.2.9.7 0 .2.7-1 1.6-2.2 1.5-3 5.8-1.2 6.9.5.3 1.2-.6 1.6-2 .4-1.8 1.5-2.8 3.5-3.2 3.9-.8 3.6-2.6-.6-3.9-1.9-.6-3.5-.7-3.5-.3zM149.1 220.9c-2.5 1.6-.6 3.8 2.8 3.3 2.5-.3 3.1-.1 3.1 1.3 0 1.4-.3 1.5-1.4.6-1.1-.9-2-1-3.5-.1-2.8 1.5-2.6 2.4.3 1.6 1.4-.3 2.8-.1 3.2.6.4.6.3.8-.4.5-1.3-.9-3.9.1-4.5 1.7-.4 1 .5 1.2 3.1 1 2.2-.2 3.1 0 2.2.6-.7.4-2.8.7-4.7.5-2.8-.2-3.6.2-4.8 2.6-3.4 6.5-.2 11.3 6.2 9.2 3.2-1.1 7.1-7.6 5.6-9.6-1.3-1.6-1.4-5.5-.2-6.2 1.1-.7 1.2-6.2.2-6.8-2-1.1-6-1.5-7.2-.8z"/><path d="M127.4 227.5c-.7 1.9-1.4 3.6-1.4 3.8 0 .9 3.6.3 4.2-.7.5-.7.8-.7.8.2 0 .7.4 1.1.8.8.4-.2 1.4-.1 2.2.4 1 .6.1.9-2.7.8-2.3 0-4.6.3-5.2.6-1.2.8-1.5 5.5-.3 7.2 2.1 3.2 10 4.6 12.1 2.1 1.7-2.2-1.3-10.8-4.8-13.4-.9-.7-1.1-1.3-.6-1.3.6 0 .3-.5-.5-1-1.1-.7-1.1-1-.2-1 .7 0 1-.5.7-1-1.3-2.1-3.6-.9-5.1 2.5z"/></svg>