<?xml version="1.0" encoding="utf-8"?>
<!-- Generator: Adobe Illustrator 21.1.0, SVG Export Plug-In . SVG Version: 6.00 Build 0)  -->
<svg version="1.1" id="Layer_1" xmlns="http://www.w3.org/2000/svg" xmlns:xlink="http://www.w3.org/1999/xlink" x="0px" y="0px"
	 viewBox="0 0 185.4 207.3" style="enable-background:new 0 0 185.4 207.3;" xml:space="preserve">
<style type="text/css">
	.st0{fill:#FFFFFF;}
</style>
<g>
	<path class="st0" d="M4.5,51.8c1.5-2.5,4-3.6,6.6-2c2,1.2,2.7,3.1,2.3,5.1l8.3-1.4l-2.3,3.9l-7.8,1l5.3,3.1l-1.8,3.1l-13.5-8
		L4.5,51.8z M9.7,56.7c0.7-1.2,1.4-2.6-0.3-3.6c-1.7-1-2.6,0.4-3.3,1.5L6,55l3.5,2.1L9.7,56.7z"/>
	<path class="st0" d="M23.8,32L20.2,36l2.3,2.1l3.5-3.8l2.3,2.1l-3.5,3.8l2.3,2.2l3.7-3.9l2.3,2.1l-6.1,6.5L15.4,36.4l6.1-6.5
		L23.8,32z"/>
	<path class="st0" d="M52,26.3l-3.2,2.1l-2.7-2l-5,3.3l0.8,3.3l-3.2,2.1l-3.5-16.5l2.7-1.8L52,26.3z M39.4,21.8L39.4,21.8l1.1,4.8
		l2.9-2L39.4,21.8z"/>
	<path class="st0" d="M58.1,6.7c4-1.5,8.5,0.4,10.1,4.7c1.5,4.3-0.7,8.6-4.8,10.1L59.1,23L53.8,8.3L58.1,6.7z M61.9,18.6
		c2.5-0.9,3.5-3.4,2.6-5.9c-0.9-2.5-3.3-3.8-5.8-2.9l-0.5,0.2l3.1,8.7L61.9,18.6z"/>
	<path class="st0" d="M78.6,1.3l3.9,4.6l2.6-5.4L89.4,0l-4.7,9.3l0.9,7L82,16.7l-0.9-7l-6.8-7.9L78.6,1.3z"/>
	<path class="st0" d="M110.4,2.4l-1.7,2.7c0,0-1.4-1.2-3.1-1.4c-1.2-0.1-1.9,0.4-2,1.2c-0.1,0.9,1.3,1.6,3,2.6
		c1.7,0.9,3.4,2.6,3.2,4.6c-0.4,3.7-3.3,4.8-6.4,4.4c-3.6-0.4-5.7-2.6-5.7-2.6l2.1-2.8c0,0,1.9,2,3.6,2.1c0.8,0.1,2.3,0.1,2.4-1.3
		c0.1-1.1-1.5-1.8-3.3-2.9c-1.8-1.1-2.7-2.7-2.6-4.3c0.3-2.9,3-4.5,5.6-4.3C108.5,0.7,110.4,2.4,110.4,2.4z"/>
	<path class="st0" d="M130.7,9.7L125.6,8l-1,3l4.9,1.6l-1,3l-4.9-1.6l-1,3l5.1,1.7l-1,3l-8.5-2.8L123.2,4l8.5,2.8L130.7,9.7z"/>
	<path class="st0" d="M142.5,11.5l9.5,5.5l-1.6,2.7l-3.2-1.9l-6.3,10.8l-3.1-1.8l6.3-10.8l-3.2-1.9L142.5,11.5z"/>
	<path class="st0" d="M165.1,41.5c-3.4,2.3-6.9,1.2-9.1-0.9c-3.1-2.9-3-7.9,0.1-11.1c3.1-3.3,7.9-3.7,11.1-0.6c2,1.9,2.7,4,2.5,6.1
		l-3.5,0.2c0.3-1.7-0.1-2.9-1.1-3.9c-1.6-1.5-4.4-1.2-6.3,0.8c-1.8,1.9-2,4.7-0.4,6.2c1.2,1.2,3.2,1.5,4.5,0.2l-2.6-2.5l1.9-2l5.2,5
		L165.1,41.5z"/>
	<path class="st0" d="M184.2,50c2.3,3.7,1.1,8.6-2.8,11c-3.9,2.4-8.7,1.4-11.1-2.5c-2.4-4-1.1-8.6,2.8-11
		C177.1,45.1,182,46.4,184.2,50z M173.3,56.7c1.5,2.4,4.1,2.2,6.1,1c2-1.2,3.3-3.5,1.9-5.9c-1.4-2.4-4.1-2.2-6.1-1
		C173.2,52,171.8,54.2,173.3,56.7z"/>
</g>
<g>
	<path class="st0" d="M15.3,164.2l-1.6,3c0,0-2.2-0.6-4.1-3.4c-2.5-3.6-1.9-9,1.8-11.6c3.7-2.6,9-1.3,11.5,2.3
		c1.9,2.8,1.7,5.1,1.7,5.1l-3.4,0.5c0,0,0.1-1.6-1-3.1c-2-3-5-2.8-6.7-1.6c-1.7,1.2-2.9,3.9-0.9,6.9
		C13.8,163.7,15.3,164.2,15.3,164.2z"/>
	<path class="st0" d="M36.9,169.8c3.3,2.8,3.7,7.8,0.7,11.3c-3,3.5-7.9,4-11.3,1c-3.5-3-3.7-7.9-0.7-11.3
		C28.6,167.3,33.6,167,36.9,169.8z M28.6,179.5c2.2,1.9,4.6,0.9,6.1-0.9s2.1-4.4,0-6.2c-2.1-1.8-4.6-0.9-6.1,0.9
		S26.3,177.6,28.6,179.5z"/>
	<path class="st0" d="M47.7,192.6l4.8,2.5l-1.4,2.8l-8-4.1l7.2-13.9l3.2,1.6L47.7,192.6z"/>
	<path class="st0" d="M67,200.3l5.2,1.4l-0.8,3l-8.6-2.4l4.2-15.1l3.4,1L67,200.3z"/>
	<path class="st0" d="M93.5,194.8l-5.4-0.3l-0.2,3.1l5.2,0.3l-0.2,3.1l-5.2-0.3l-0.2,3.1l5.4,0.3l-0.2,3.1l-8.9-0.6l1-15.6l8.9,0.6
		L93.5,194.8z"/>
	<path class="st0" d="M116.2,200.9l2,2.8c0,0-1.5,1.7-4.9,2.2c-4.4,0.7-9-2.2-9.7-6.6c-0.7-4.4,2.7-8.7,7.1-9.4
		c3.4-0.5,5.3,0.6,5.3,0.6l-1,3.2c0,0-1.4-0.8-3.2-0.5c-3.5,0.6-4.7,3.3-4.4,5.4c0.3,2.1,2.3,4.3,5.8,3.7
		C115.1,202,116.2,200.9,116.2,200.9z"/>
	<path class="st0" d="M123.3,187.1l10.2-4.2l1.2,2.9l-3.4,1.4l4.8,11.6l-3.3,1.4l-4.8-11.6l-3.4,1.4L123.3,187.1z"/>
	<path class="st0" d="M152.8,189.7l-3,1.9l-8.5-13.2l3-1.9L152.8,189.7z"/>
	<path class="st0" d="M149.9,172.8l2.9-2.8l9.9,4.8l-4.2-10.2l2.9-2.8l6,15.9l-2,1.9L149.9,172.8z"/>
	<path class="st0" d="M173.9,149.8l-3,4.5l2.6,1.7l2.9-4.3l2.6,1.7l-2.9,4.3l2.6,1.7l3-4.5l2.6,1.7l-5,7.5l-13.1-8.7l5-7.5
		L173.9,149.8z"/>
</g>
<path class="st0" d="M161,124.7c0-0.3-0.1-0.5-0.1-0.7c-0.2-13.4-8.4-18.5-8.8-18.8c-0.2-0.1-0.4-0.2-0.5-0.2l-32.1-9.1
	c-2.2-1.9-7-6.9-7-11.8l0-16.7c0-0.5-0.4-0.9-0.9-0.9H66.1c-0.5,0-0.9,0.4-0.9,0.9l0,11.7H0v2.2C0,87,4.7,91.7,10.5,91.7h6.2
	c1,4.7,5.2,8.3,10.2,8.3H32c1,4.7,5.2,8.3,10.2,8.3h5.5c1,4.7,5.2,8.3,10.2,8.3c0,0,3,0,7,0l0,7.9c0,0,0,0.1,0,0.1
	c0,0.1,0,0.2,0,0.4l0,8.5c0,0.6,0.2,1.1,0.6,1.6c0.1,0.1,0.3,0.2,0.5,0.3H67h4.9c-0.2,0.8-0.3,1.6-0.3,2.5c0,6.9,5.6,12.5,12.5,12.5
	c6.9,0,12.5-5.6,12.5-12.5c0-0.8-0.1-1.7-0.3-2.5H129c-0.2,0.8-0.3,1.6-0.3,2.5c0,6.9,5.6,12.5,12.5,12.5c6.9,0,12.5-5.6,12.5-12.5
	c0-0.8-0.1-1.7-0.3-2.5h5.5h0.9c0.2-0.1,0.3-0.2,0.5-0.3c0.4-0.4,0.6-1,0.6-1.6L161,124.7z M58,112.3c-2.6,0-4.9-1.7-5.7-4h9.2V104
	H42.3c-2.6,0-4.8-1.7-5.7-4h15.7v-4.3H26.9c-2.6,0-4.8-1.7-5.7-4h23.2v-4.3H10.5c-2.6,0-4.9-1.7-5.7-4h60.4l-0.1,28.9
	C61,112.3,58,112.3,58,112.3z M69.5,83.4h2.6c4.9,0,9.2,4.3,11,6.8l15,22.1H71.4c-0.6,0-1.3,0-1.9,0L69.5,83.4z M71.4,116.7h34.9
	L86.7,87.8c-2.8-4-8.3-8.7-14.6-8.7v0h-2.6l0-8.3H108v8.4l-6.5,0c-1.2,0-2.2,1-2.2,2.2c0,1.2,1,2.2,2.2,2.2c0,0,0,0,0,0l6.5,0v0.5
	c0,1.9,0.4,3.7,1.1,5.4l-6.6,2.7c-1.1,0.5-1.7,1.7-1.2,2.9c0.3,0.9,1.2,1.4,2,1.4c0.3,0,0.6-0.1,0.8-0.2l7-2.9
	c1,1.5,2.1,2.8,3.1,3.8l-4.7,5.7c-0.8,0.9-0.6,2.3,0.3,3.1c0.4,0.3,0.9,0.5,1.4,0.5c0.6,0,1.3-0.3,1.7-0.8l4.6-5.6c0,0,0,0,0,0
	l5.4,1.5l-2.8,6.1c-0.5,1.1,0,2.4,1.1,2.9c0.3,0.1,0.6,0.2,0.9,0.2c0.8,0,1.6-0.5,2-1.3l3-6.7l22.5,6.4c1.1,0.8,5.7,4.6,6.4,13.3
	H69.5l0-5.7C70.1,116.7,70.7,116.7,71.4,116.7z M84.2,146c-4.5,0-8.1-3.6-8.1-8.1c0-0.9,0.1-1.7,0.4-2.5h15.4
	c0.3,0.8,0.4,1.6,0.4,2.5C92.3,142.4,88.6,146,84.2,146z M141.2,146c-4.5,0-8.1-3.6-8.1-8.1c0-0.9,0.1-1.7,0.4-2.5h15.4
	c0.3,0.8,0.4,1.6,0.4,2.5C149.3,142.4,145.7,146,141.2,146z M69.4,131.3l0-4.5h87.2l0,4.5H69.4z"/>
</svg>
